<?xml version="1.0" encoding="utf-8"?>
<!-- Generator: Adobe Illustrator 15.1.0, SVG Export Plug-In . SVG Version: 6.00 Build 0)  -->
<!DOCTYPE svg PUBLIC "-//W3C//DTD SVG 1.1//EN" "http://www.w3.org/Graphics/SVG/1.1/DTD/svg11.dtd">
<svg version="1.1" id="Layer_1" xmlns="http://www.w3.org/2000/svg" xmlns:xlink="http://www.w3.org/1999/xlink" x="0px" y="0px"
	 width="324px" height="72px" viewBox="0 0 324 72" enable-background="new 0 0 324 72" xml:space="preserve">
<rect x="11.038" y="35.728" fill="#24497A" width="32.793" height="32.797"/>
<rect x="43.831" y="35.728" fill="#21244D" width="32.794" height="32.797"/>
<rect x="11.039" y="2.935" fill="#5F7EAA" width="32.793" height="32.791"/>
<rect x="43.831" y="2.933" fill="#3B6097" width="32.794" height="32.795"/>
<rect x="27.133" y="12.597" fill="#FFFFFF" width="1.354" height="13.514"/>
<g>
	<defs>
		<rect id="SVGID_1_" width="324" height="72"/>
	</defs>
	<clipPath id="SVGID_2_">
		<use xlink:href="#SVGID_1_"  overflow="visible"/>
	</clipPath>
	<path clip-path="url(#SVGID_2_)" fill="#FFFFFF" d="M34.014,48.039l-1.056,0.813c-1.254-1.553-2.866-2.336-4.836-2.336
		c-1.608,0-2.991,0.564-4.151,1.693c-1.16,1.133-1.74,2.512-1.74,4.152c0,1.635,0.566,3.002,1.702,4.104
		c1.135,1.095,2.56,1.646,4.264,1.646c1.908,0,3.495-0.74,4.761-2.221l1.056,0.807c-0.667,0.879-1.508,1.549-2.524,2.008
		c-1.017,0.453-2.14,0.684-3.368,0.684c-2.145,0-3.904-0.676-5.271-2.029c-1.368-1.355-2.051-3.068-2.051-5.141
		c0-1.277,0.318-2.461,0.95-3.547c0.634-1.084,1.512-1.936,2.635-2.551c1.122-0.615,2.331-0.922,3.623-0.922
		c1.291,0,2.452,0.246,3.482,0.736C32.519,46.424,33.359,47.125,34.014,48.039"/>
	<path clip-path="url(#SVGID_2_)" fill="#FFFFFF" d="M60.577,44.99l6.305,14.059h-1.448l-2.127-4.605h-5.836l-2.107,4.605h-1.506
		l6.381-14.059H60.577z M60.409,47.982l-2.314,5.084h4.609L60.409,47.982z"/>
	<polygon clip-path="url(#SVGID_2_)" fill="#FFFFFF" points="55.065,26.111 55.065,12.597 55.364,12.597 64.342,22.949 
		64.342,12.597 65.678,12.597 65.678,26.111 65.376,26.111 56.458,15.892 56.458,26.111 	"/>
</g>
<g>
	<path fill="#5F7EAA" d="M177.98,14.931h4.644l7.955,13.846l7.955-13.846h4.644L192.6,33.249v14.104h-4.041V33.249L177.98,14.931z"
		/>
	<path fill="#5F7EAA" d="M209.198,14.931h17.415v3.698H213.24v9.073h12.986V31.4H213.24v12.254h13.373v3.698h-17.415V14.931z"/>
	<path fill="#5F7EAA" d="M239.385,39.226l-3.698,8.127h-4.343l15.479-33.797l15.479,33.797h-4.343l-3.698-8.127H239.385z
		 M246.823,22.413l-5.762,13.115h11.523L246.823,22.413z"/>
	<path fill="#5F7EAA" d="M288.403,47.353h-4.902l-9.546-13.717h-1.677v13.717h-4.042V14.931h4.902c2.881,0,5.977,0.043,8.557,1.505
		c2.709,1.591,4.257,4.644,4.257,7.74c0,4.644-3.096,8.514-7.783,9.073L288.403,47.353z M272.278,30.282h1.29
		c4.128,0,8.6-0.774,8.6-5.934c0-5.074-4.815-5.805-8.814-5.805h-1.075V30.282z"/>
	<path fill="#5F7EAA" d="M309.216,21.08c-1.204-2.021-2.752-3.053-5.203-3.053c-2.58,0-5.418,1.763-5.418,4.601
		c0,2.537,2.494,3.87,4.515,4.644l2.322,0.903c4.601,1.806,8.041,4.343,8.041,9.761c0,5.891-4.559,10.105-10.363,10.105
		c-5.246,0-9.33-3.87-10.019-9.073l4.085-0.86c-0.043,3.569,2.795,6.149,6.278,6.149c3.482,0,5.977-2.924,5.977-6.321
		c0-3.483-2.795-4.988-5.59-6.149l-2.236-0.946c-3.698-1.591-7.052-3.698-7.052-8.213c0-5.246,4.644-8.385,9.546-8.385
		c3.612,0,6.579,1.763,8.342,4.902L309.216,21.08z"/>
</g>
<g>
	<defs>
		<rect id="SVGID_3_" width="324" height="72"/>
	</defs>
	<clipPath id="SVGID_4_">
		<use xlink:href="#SVGID_3_"  overflow="visible"/>
	</clipPath>
	<g clip-path="url(#SVGID_4_)">
		<path fill="#24497A" d="M127.389,50.102v5.904h-6.192v7.921h-6.48v-7.921H87.93L121.197,7.33v42.771H127.389z M114.716,27.708
			h-0.144L99.307,50.102h15.41V27.708z"/>
		<path fill="#24497A" d="M149.995,15.827l-3.384,11.161l3.816-0.216c10.513,0,17.426,9.001,17.426,19.01
			c0,11.449-8.929,19.298-20.09,19.298c-6.697,0-13.393-3.528-16.562-9.505l5.041-4.753c1.656,4.608,7.201,8.065,12.025,8.065
			c7.345,0,13.105-6.049,13.105-13.321c0-6.985-5.976-12.889-12.961-12.889c-3.816,0-7.777,1.8-10.153,4.824h-1.296l8.353-27.866
			h21.746v6.192H149.995z"/>
	</g>
</g>
<g>
	<path fill="#58595B" d="M183.251,54.884h3.646v0.774h-2.8v1.899h2.719v0.774h-2.719v2.565h2.8v0.774h-3.646V54.884z"/>
	<path fill="#58595B" d="M188.597,54.884h0.964l1.386,2.476l1.477-2.476h0.964l-1.954,3.232l2.062,3.556h-0.945l-1.603-2.782
		l-1.665,2.782h-0.945l2.134-3.556L188.597,54.884z"/>
	<path fill="#58595B" d="M200.146,56.181c-0.486-0.433-1.152-0.667-1.792-0.667c-1.521,0-2.683,1.27-2.683,2.773
		c0,1.485,1.152,2.755,2.665,2.755c0.666,0,1.306-0.252,1.81-0.702v0.999c-0.522,0.306-1.188,0.478-1.782,0.478
		c-1.936,0-3.538-1.54-3.538-3.503c0-2.007,1.611-3.573,3.609-3.573c0.595,0,1.197,0.144,1.711,0.459V56.181z"/>
	<path fill="#58595B" d="M202.196,54.884h3.646v0.774h-2.8v1.899h2.719v0.774h-2.719v2.565h2.8v0.774h-3.646V54.884z"/>
	<path fill="#58595B" d="M208.783,61.672h-0.846v-6.788h0.972c2.089,0,2.737,0.721,2.737,1.963c0,1.432-1.09,1.98-2.377,1.98h-0.486
		V61.672z M208.783,58.07h0.271c0.864,0,1.801-0.161,1.801-1.242c0-1.063-1.009-1.188-1.846-1.188h-0.226V58.07z"/>
	<path fill="#58595B" d="M215.264,61.672h-0.846v-6.014h-1.612v-0.774h4.069v0.774h-1.611V61.672z"/>
	<path fill="#58595B" d="M219.404,61.672h-0.847v-6.788h0.847V61.672z"/>
	<path fill="#58595B" d="M228.36,58.278c0,2.017-1.594,3.538-3.556,3.538c-1.963,0-3.557-1.521-3.557-3.538
		c0-1.945,1.611-3.538,3.557-3.538C226.749,54.74,228.36,56.333,228.36,58.278z M227.514,58.278c0-1.495-1.116-2.746-2.709-2.746
		c-1.594,0-2.71,1.251-2.71,2.746c0,1.548,1.242,2.745,2.71,2.745C226.271,61.023,227.514,59.826,227.514,58.278z"/>
	<path fill="#58595B" d="M230.149,54.56l5.096,5.339v-5.015h0.846v7.067l-5.096-5.339v5.06h-0.846V54.56z"/>
	<path fill="#58595B" d="M239.312,59.971l-0.774,1.701h-0.909l3.241-7.076l3.241,7.076h-0.909l-0.774-1.701H239.312z M240.869,56.45
		l-1.206,2.746h2.412L240.869,56.45z"/>
	<path fill="#58595B" d="M246.574,60.897h2.062v0.774h-2.907v-6.788h0.846V60.897z"/>
	<path fill="#58595B" d="M254.863,59.971l-0.774,1.701h-0.909l3.241-7.076l3.241,7.076h-0.909l-0.774-1.701H254.863z M256.421,56.45
		l-1.206,2.746h2.412L256.421,56.45z"/>
	<path fill="#58595B" d="M261.208,54.884h1.404c2.08,0,3.809,1.099,3.809,3.358c0,2.313-1.692,3.43-3.836,3.43h-1.377V54.884z
		 M262.055,60.897h0.297c1.729,0,3.223-0.648,3.223-2.619c0-1.981-1.494-2.62-3.223-2.62h-0.297V60.897z"/>
	<path fill="#58595B" d="M270.55,59.907l2.017-5.023h0.928l-2.944,7.148l-2.953-7.148h0.928L270.55,59.907z"/>
	<path fill="#58595B" d="M275.122,54.884h3.646v0.774h-2.8v1.899h2.719v0.774h-2.719v2.565h2.8v0.774h-3.646V54.884z"/>
	<path fill="#58595B" d="M280.783,54.56l5.096,5.339v-5.015h0.846v7.067l-5.096-5.339v5.06h-0.846V54.56z"/>
	<path fill="#58595B" d="M290.809,61.672h-0.846v-6.014h-1.612v-0.774h4.069v0.774h-1.611V61.672z"/>
	<path fill="#58595B" d="M294.867,54.884v4.006c0,1.107,0.334,2.134,1.639,2.134c1.306,0,1.639-1.026,1.639-2.134v-4.006h0.847
		v4.294c0,1.495-0.928,2.639-2.485,2.639s-2.484-1.144-2.484-2.639v-4.294H294.867z"/>
	<path fill="#58595B" d="M305.435,61.672h-1.026L302.41,58.8h-0.352v2.872h-0.846v-6.788h1.026c0.603,0,1.251,0.009,1.791,0.315
		c0.567,0.333,0.892,0.972,0.892,1.62c0,0.973-0.648,1.782-1.63,1.899L305.435,61.672z M302.059,58.098h0.271
		c0.864,0,1.801-0.162,1.801-1.242c0-1.063-1.009-1.216-1.846-1.216h-0.226V58.098z"/>
	<path fill="#58595B" d="M307.144,54.884h3.646v0.774h-2.8v1.899h2.719v0.774h-2.719v2.565h2.8v0.774h-3.646V54.884z"/>
</g>
</svg>
