<?xml version="1.0" encoding="utf-8"?>
<!-- Generator: Adobe Illustrator 19.2.1, SVG Export Plug-In . SVG Version: 6.00 Build 0)  -->
<svg version="1.1" xmlns="http://www.w3.org/2000/svg" xmlns:xlink="http://www.w3.org/1999/xlink" x="0px" y="0px"
	 viewBox="0 0 297.7 65.6" style="enable-background:new 0 0 297.7 65.6;" xml:space="preserve">
<style type="text/css">
	.st0{fill:#24497A;}
	.st1{fill:#21244D;}
	.st2{fill:#5F7EAA;}
	.st3{fill:#3B6097;}
	.st4{fill:#FFFFFF;}
</style>
<g id="Layer_6">
	<g>
		<rect y="32.8" class="st0" width="32.8" height="32.8"/>
		<rect x="32.8" y="32.8" class="st1" width="32.8" height="32.8"/>
		<rect x="0" y="0" class="st2" width="32.8" height="32.8"/>
		<rect x="32.8" class="st3" width="32.8" height="32.8"/>
		<rect x="16.1" y="9.7" class="st4" width="1.4" height="13.5"/>
		<path class="st4" d="M23,45.1l-1.1,0.8c-1.3-1.6-2.9-2.3-4.8-2.3c-1.6,0-3,0.6-4.2,1.7c-1.2,1.1-1.7,2.5-1.7,4.2
			c0,1.6,0.6,3,1.7,4.1c1.1,1.1,2.6,1.6,4.3,1.6c1.9,0,3.5-0.7,4.8-2.2l1.1,0.8c-0.7,0.9-1.5,1.5-2.5,2c-1,0.5-2.1,0.7-3.4,0.7
			c-2.1,0-3.9-0.7-5.3-2c-1.4-1.4-2.1-3.1-2.1-5.1c0-1.3,0.3-2.5,1-3.5c0.6-1.1,1.5-1.9,2.6-2.6c1.1-0.6,2.3-0.9,3.6-0.9
			c1.3,0,2.5,0.2,3.5,0.7C21.5,43.5,22.3,44.2,23,45.1"/>
		<path class="st4" d="M49.5,42.1l6.3,14.1h-1.4l-2.1-4.6h-5.8l-2.1,4.6h-1.5l6.4-14.1H49.5z M49.4,45l-2.3,5.1h4.6L49.4,45z"/>
		<polygon class="st4" points="44,23.2 44,9.7 44.3,9.7 53.3,20 53.3,9.7 54.6,9.7 54.6,23.2 54.3,23.2 45.4,13 45.4,23.2 		"/>
	</g>
</g>
<g id="Layer_1">
	<g>
		<path class="st2" d="M172.3,18.6L162,1.9h5.2l6.5,10.4c0.1,0.2,0.6,1,1.3,2.5c0.4-1,0.8-1.8,1.3-2.6l6.6-10.3h5l-10.6,16.7v14.1
			h-4.9V18.6z"/>
		<path class="st2" d="M194.4,1.9h17.2v4.3h-12.2v7.7h12.2v4.4h-12.2v9.9h12.2v4.5h-17.2V1.9z"/>
		<path class="st2" d="M237.4,24.7h-12.2l-3.6,7.9h-5.2l14.9-31.9l14.9,31.9h-5.3L237.4,24.7z M235.6,20.6l-3.1-7
			c-0.3-0.8-0.7-1.9-1.2-3.5c-0.4,1.5-0.8,2.7-1.1,3.5l-3.1,7H235.6z"/>
		<path class="st2" d="M256.9,32.6h-4.7V1.9h7c3.3,0,5.8,0.3,7.7,1.7c1.8,1.5,3,3.9,3,6.8c0,4.9-2.4,7.7-7.1,8.3l10.6,14h-5.6
			l-10.2-13.8h-0.6V32.6z M258.1,15c4.4,0,6.6-0.5,6.6-4.2c0-3.8-2.1-4.6-6.6-4.6h-0.9V15H258.1z"/>
		<path class="st2" d="M281.8,24.7c0.7,2.8,2.8,4.2,5.9,4.2c3,0,4.9-1.8,4.9-4.6c0-3-2.3-3.7-5.5-5.3c-5.5-2.7-8.5-4.7-8.5-9.4
			c0-4.9,3.7-8.4,9.2-8.4c4.6,0,7.7,1.8,8.9,5.1l-3.9,2c-1.2-1.9-2.6-2.8-4.6-2.8c-2.7,0-4.4,1.5-4.4,3.9c0,3,2.4,3.9,5.8,5.5
			c5.4,2.5,8,4.7,8,9.1c0,5.7-3.8,9.5-10.2,9.5c-5.2,0-8.7-2.5-9.7-7L281.8,24.7z"/>
	</g>
	<g>
		<path class="st0" d="M104,41.6H79.3l30-41.5h2.4v35.7h6.3v5.8h-6.3V52H104V41.6z M91.1,35.7H104V22.3c0-0.4,0-2.2,0.2-5.1
			L91.1,35.7z"/>
		<path class="st0" d="M139.3,53.4c-11.5,0-18.5-9.6-18.5-26.7c0-17,7.1-26.6,18.6-26.6c11.7,0,18.4,9.5,18.4,27.2
			C157.8,43.8,150.7,53.4,139.3,53.4z M149.5,26.6c0-12.7-3.5-19.4-10-19.4c-6.8,0-10.3,6.6-10.3,19.6c0,12.7,3.7,19.4,10,19.4
			C146,46.2,149.5,39.6,149.5,26.6z"/>
	</g>
	<g>
		<path class="st1" d="M164.3,42.3h3.6v0.9h-2.5v1.6h2.5v0.9h-2.5v2.1h2.5v0.9h-3.6V42.3z"/>
		<path class="st1" d="M171.5,45.4l-1.8-3.1h1.1l0.9,1.6c0.1,0.1,0.2,0.4,0.3,0.6c0.1-0.2,0.2-0.4,0.4-0.6l1-1.6h1.1l-1.9,3.1l2,3.4
			h-1.2l-1.1-1.8c-0.1-0.1-0.2-0.3-0.3-0.6c-0.1,0.2-0.2,0.4-0.4,0.6l-1.1,1.8h-1.1L171.5,45.4z"/>
		<path class="st1" d="M179.4,43.1c-1.4,0-2.4,1-2.4,2.4c0,1.4,1,2.4,2.3,2.4c0.8,0,1.4-0.3,2.1-0.8v1.2c-0.6,0.4-1.2,0.6-2,0.6
			c-1,0-1.8-0.3-2.5-1s-1-1.5-1-2.4c0-0.9,0.3-1.8,1-2.4c0.6-0.6,1.5-1,2.4-1c0.8,0,1.4,0.2,2.1,0.7l-0.1,1.1
			C180.7,43.4,180.1,43.1,179.4,43.1z"/>
		<path class="st1" d="M183.7,42.3h3.6v0.9h-2.5v1.6h2.5v0.9h-2.5v2.1h2.5v0.9h-3.6V42.3z"/>
		<path class="st1" d="M190.5,48.7h-1v-6.4h1.4c0.1,0,0.1,0,0.2,0c0.7,0,1.2,0,1.6,0.3c0.4,0.3,0.6,0.8,0.6,1.4s-0.3,1.2-0.6,1.4
			c-0.4,0.3-1,0.3-1.6,0.3c-0.1,0-0.1,0-0.2,0h-0.4V48.7z M190.8,45c1,0,1.4-0.1,1.4-0.9c0-0.8-0.5-0.9-1.4-0.9h-0.3V45H190.8z"/>
		<path class="st1" d="M197.4,48.7h-1v-5.5h-1.7v-0.9h4.5v0.9h-1.7V48.7z"/>
		<path class="st1" d="M201,42.3h1v6.4h-1V42.3z"/>
		<path class="st1" d="M210.2,47.9c-0.7,0.6-1.5,1-2.4,1c-0.9,0-1.8-0.4-2.4-1c-0.7-0.6-1-1.5-1-2.4s0.3-1.7,1-2.4
			c0.7-0.6,1.5-1,2.4-1c0.9,0,1.8,0.3,2.4,1c0.7,0.6,1,1.5,1,2.4C211.2,46.4,210.9,47.3,210.2,47.9z M209.4,43.8
			c-0.4-0.5-1-0.7-1.7-0.7c-0.6,0-1.2,0.2-1.7,0.7c-0.5,0.5-0.7,1.1-0.7,1.7s0.2,1.2,0.7,1.7c0.4,0.5,1,0.7,1.7,0.7
			c0.6,0,1.2-0.2,1.7-0.7s0.7-1.1,0.7-1.7S209.9,44.3,209.4,43.8z"/>
		<path class="st1" d="M213.5,42l4.1,3.9c0.3,0.3,0.5,0.5,0.7,0.8v-4.5h1V49l-4.2-4c-0.2-0.2-0.4-0.5-0.6-0.7v4.5h-1V42z"/>
		<path class="st1" d="M225.3,47.1h-2.5l-0.7,1.7h-1.1L224,42l3.1,6.7H226L225.3,47.1z M224.9,46.2l-0.7-1.5
			c-0.1-0.2-0.2-0.4-0.2-0.7c-0.1,0.3-0.2,0.6-0.2,0.7l-0.7,1.5H224.9z"/>
		<path class="st1" d="M228.8,42.3h1v5.5h2.3v0.9h-3.4V42.3z"/>
		<path class="st1" d="M241.3,47.1h-2.5l-0.7,1.7h-1.1L240,42l3.1,6.7h-1.1L241.3,47.1z M241,46.2l-0.7-1.5
			c-0.1-0.2-0.2-0.4-0.2-0.7c-0.1,0.3-0.2,0.6-0.2,0.7l-0.7,1.5H241z"/>
		<path class="st1" d="M244.8,42.3h1.4c1.2,0,2.1,0,2.9,0.6c0.7,0.6,1.1,1.5,1.1,2.6s-0.4,2-1.1,2.6c-0.7,0.6-1.6,0.6-2.6,0.6
			c-0.1,0-0.2,0-0.3,0h-1.4V42.3z M246.2,47.8c0.2,0,0.3,0,0.5,0c0.7,0,1.3,0,1.7-0.4c0.5-0.4,0.7-1,0.7-1.9s-0.2-1.4-0.7-1.9
			c-0.5-0.4-1.1-0.4-1.8-0.4c-0.1,0-0.2,0-0.4,0h-0.4v4.6H246.2z"/>
		<path class="st1" d="M251.5,42.3h1.1l1.4,3.4c0.2,0.4,0.3,0.7,0.3,1c0.1-0.3,0.2-0.7,0.4-1l1.4-3.4h1.1l-2.9,6.7L251.5,42.3z"/>
		<path class="st1" d="M259,42.3h3.6v0.9H260v1.6h2.5v0.9H260v2.1h2.5v0.9H259V42.3z"/>
		<path class="st1" d="M264.8,42l4.1,3.9c0.3,0.3,0.5,0.5,0.7,0.8v-4.5h1V49l-4.2-4c-0.2-0.2-0.4-0.5-0.6-0.7v4.5h-1V42z"/>
		<path class="st1" d="M275.2,48.7h-1v-5.5h-1.7v-0.9h4.5v0.9h-1.7V48.7z"/>
		<path class="st1" d="M279.7,42.3v3.9c0,1.2,0.5,1.7,1.6,1.7s1.6-0.6,1.6-1.7v-3.9h1v4c0,1.7-0.9,2.6-2.6,2.6s-2.6-0.9-2.6-2.6v-4
			H279.7z"/>
		<path class="st1" d="M287.5,48.7h-1v-6.4h1.5c0.7,0,1.2,0.1,1.6,0.4c0.4,0.3,0.6,0.8,0.6,1.4c0,1-0.5,1.6-1.5,1.7l2.2,2.9h-1.2
			l-2.1-2.9h-0.1V48.7z M287.7,45c0.9,0,1.4-0.1,1.4-0.9c0-0.8-0.4-1-1.4-1h-0.2V45H287.7z"/>
		<path class="st1" d="M292.6,42.3h3.6v0.9h-2.5v1.6h2.5v0.9h-2.5v2.1h2.5v0.9h-3.6V42.3z"/>
	</g>
</g>
</svg>
