<?xml version="1.0" encoding="utf-8"?>
<!-- Generator: Adobe Illustrator 19.2.1, SVG Export Plug-In . SVG Version: 6.00 Build 0)  -->
<svg version="1.1" xmlns="http://www.w3.org/2000/svg" xmlns:xlink="http://www.w3.org/1999/xlink" x="0px" y="0px"
	 viewBox="0 0 297.7 65.6" style="enable-background:new 0 0 297.7 65.6;" xml:space="preserve">
<style type="text/css">
	.st0{fill:#24497A;}
	.st1{fill:#21244D;}
	.st2{fill:#5F7EAA;}
	.st3{fill:#3B6097;}
	.st4{fill:#FFFFFF;}
	.st5{fill:none;}
	.st6{font-family:'FuturaBT-Medium';}
	.st7{font-size:43px;}
	.st8{letter-spacing:3;}
	.st9{font-size:72px;}
	.st10{letter-spacing:-4;}
	.st11{font-size:9px;}
	.st12{letter-spacing:1;}
</style>
<g id="Layer_6">
	<g>
		<rect y="32.8" class="st0" width="32.8" height="32.8"/>
		<rect x="32.8" y="32.8" class="st1" width="32.8" height="32.8"/>
		<rect x="0" y="0" class="st2" width="32.8" height="32.8"/>
		<rect x="32.8" class="st3" width="32.8" height="32.8"/>
		<rect x="16.1" y="9.7" class="st4" width="1.4" height="13.5"/>
		<path class="st4" d="M23,45.1l-1.1,0.8c-1.3-1.6-2.9-2.3-4.8-2.3c-1.6,0-3,0.6-4.2,1.7c-1.2,1.1-1.7,2.5-1.7,4.2
			c0,1.6,0.6,3,1.7,4.1c1.1,1.1,2.6,1.6,4.3,1.6c1.9,0,3.5-0.7,4.8-2.2l1.1,0.8c-0.7,0.9-1.5,1.5-2.5,2c-1,0.5-2.1,0.7-3.4,0.7
			c-2.1,0-3.9-0.7-5.3-2c-1.4-1.4-2.1-3.1-2.1-5.1c0-1.3,0.3-2.5,1-3.5c0.6-1.1,1.5-1.9,2.6-2.6c1.1-0.6,2.3-0.9,3.6-0.9
			c1.3,0,2.5,0.2,3.5,0.7C21.5,43.5,22.3,44.2,23,45.1"/>
		<path class="st4" d="M49.5,42.1l6.3,14.1h-1.4l-2.1-4.6h-5.8l-2.1,4.6h-1.5l6.4-14.1H49.5z M49.4,45l-2.3,5.1h4.6L49.4,45z"/>
		<polygon class="st4" points="44,23.2 44,9.7 44.3,9.7 53.3,20 53.3,9.7 54.6,9.7 54.6,23.2 54.3,23.2 45.4,13 45.4,23.2 		"/>
	</g>
</g>
<g id="Layer_1">
	<g>
		<rect x="162.2" y="0.1" class="st5" width="147.4" height="38.4"/>
		<text transform="matrix(1 0 0 1 162.1895 32.6484)" class="st2 st6 st7 st8">Years</text>
		<rect x="78.4" y="-2.5" class="st5" width="102.9" height="65"/>
		<text transform="matrix(1 0 0 1 78.3882 52.0015)" class="st0 st6 st9 st10">40</text>
		<rect x="163.6" y="41.9" class="st5" width="136.9" height="10.7"/>
		<text transform="matrix(1 0 0 1 163.5532 48.7363)" class="st1 st6 st11 st12">exceptional adventure</text>
	</g>
</g>
</svg>
